<?xml version="1.0" encoding="UTF-8" standalone="no"?>
<svg
   version="1.0"
   width="224.000000pt"
   height="224.000000pt"
   viewBox="0 0 224.000000 224.000000"
   preserveAspectRatio="xMidYMid meet"
   id="svg16"
   sodipodi:docname="crocosvg.svg"
   inkscape:version="1.4 (86a8ad7, 2024-10-11)"
   xmlns:inkscape="http://www.inkscape.org/namespaces/inkscape"
   xmlns:sodipodi="http://sodipodi.sourceforge.net/DTD/sodipodi-0.dtd"
   xmlns="http://www.w3.org/2000/svg"
   xmlns:svg="http://www.w3.org/2000/svg">
  <defs
     id="defs16" />
  <sodipodi:namedview
     id="namedview16"
     pagecolor="#505050"
     bordercolor="#eeeeee"
     borderopacity="1"
     inkscape:showpageshadow="0"
     inkscape:pageopacity="0"
     inkscape:pagecheckerboard="0"
     inkscape:deskcolor="#505050"
     inkscape:document-units="pt"
     inkscape:zoom="16"
     inkscape:cx="17.46875"
     inkscape:cy="282.03125"
     inkscape:window-width="2560"
     inkscape:window-height="1369"
     inkscape:window-x="1912"
     inkscape:window-y="-8"
     inkscape:window-maximized="1"
     inkscape:current-layer="g16" />
  <g
     transform="translate(0.000000,224.000000) scale(0.100000,-0.100000)"
     fill="#000000"
     stroke="none"
     id="g16">
    <path
       d="m 210,1576 c 0,-19 5,-38 11,-42 7,-4 8,-20 4,-41 -5,-30 -2,-40 20,-63 l 27,-28 -20,-38 c -29,-58 -43,-153 -32,-221 11,-67 38,-150 51,-158 15,-10 10,-35 -12,-66 -15,-22 -19,-37 -14,-60 5,-20 2,-38 -9,-54 -21,-32 -21,-32 14,-40 24,-5 34,-2 55,22 13,15 25,36 25,46 0,22 3,22 53,-7 85,-50 181,-71 312,-70 66,1 408,3 760,5 581,4 643,6 671,21 54,29 52,78 -2,78 -13,0 -24,5 -24,11 0,7 9.9624,9.31381 25.4143,7.81738 8.5228,-0.82539 18.5651,-0.75574 16.7577,-5.91356 -1.4153,-4.03875 5.847,-5.2088 6.5781,-3.61307 1.3015,2.84104 1.8229,3.05534 4.0241,10.04064 1.9064,6.04965 3.9555,10.54066 4.0842,12.37551 0.1853,2.6401 -5.6212,4.65831 -7.0314,0.78125 -1.1161,-3.06841 -15.4466,1.15241 -19.827,2.51185 -21,7 -50,-9 -50,-27 0,-5 11.5391,-15.05469 27.5391,-21.05469 C 2145.5391,833.94531 2145,820 2099,798 c -32,-16 -82,-18 -555,-19 -494,0 -680,7 -793,32 -80,17 -229,70 -262,92 -42,29 -45,41 -14,61 20,13 30,14 46,5 38,-20 99,19 99,63 0,10 -11,12 -40,10 -27,-3 -49,2 -72,16 -30,19 -35,19 -62,5 l -29,-15 8,38 c 3,21 14,52 22,68 9,17 16,47 16,67 0,29 5,40 23,50 20,10 27,10 43,-5 18,-17 21,-16 70,9 28,14 51,29 51,33 0,12 -60,32 -76,25 -14,-5 -44,13 -44,27 0,9 89,66 126,80 19,8 134,11 334,11 168,0 315,2 328,6 17,4 22,11 19,24 -3,11 -1,22 4,25 15,9 10,21 -16,38 -23,15 -27,15 -51,-1 -31,-20 -61,-21 -354,-10 -120,5 -239,15 -269,22 -30,8 -58,12 -62,9 -4,-2 -10,5 -14,16 -6,19 -19,25 -40,20 -5,-2 -22,-2 -37,-1 -15,1 -29,-3 -33,-9 -3,-5 -24,-10 -45,-10 -21,0 -50,-4 -63,-9 -23,-9 -25,-14 -20,-50 3,-23 1,-41 -4,-41 -17,0 -33,24 -33,51 0,20 -10,33 -40,53 -22,14 -42,26 -45,26 -3,0 -5,-15 -5,-34 z m 342,2 c -21,-21 -14,-39 11,-33 13,4 50,0 83,-8 41,-11 145,-17 337,-22 255,-6 280,-5 298,11 18,16 19,16 25,-1 11,-26 -19,-43 -89,-50 -67,-7 -600,-1 -657,7 -19,3 -41,1 -47,-4 -9,-7 -15,-5 -19,6 -6,15 -9,15 -30,-5 -28,-26 -36,-21 -38,21 -1,25 -5,30 -21,28 -11,-2 -21,-12 -22,-23 -2,-11 0,-14 3,-7 9,19 24,4 24,-24 0,-31 26,-42 47,-21 15,15 17,15 29,-1 9,-12 15,-13 25,-6 11,9 79,11 109,5 9,-2 -106,-72 -129,-78 -19,-5 -31,2 -58,31 -19,20 -38,34 -44,31 -5,-4 6,-23 26,-43 19,-20 35,-40 35,-44 0,-4 15,-8 33,-8 17,0 43,-9 57,-19 17,-14 29,-17 42,-10 10,6 19,5 23,-1 3,-5 -8,-16 -26,-25 -29,-15 -32,-15 -51,2 -18,16 -21,16 -48,1 -21,-12 -31,-13 -40,-4 -10,9 -11,7 -5,-9 17,-44 16,-64 -9,-123 -27,-63 -34,-122 -16,-122 6,0 24,7 39,15 27,13 31,13 54,-5 14,-12 40,-20 61,-20 44,0 46,-13 5,-30 -24,-11 -35,-11 -50,-1 -36,22 -99,-32 -80,-68 14,-25 111,-72 209,-101 41,-12 71,-24 68,-27 -3,-3 -18,-2 -33,2 -15,5 -36,7 -46,6 -10,-1 -24,2 -31,9 -8,6 -27,9 -44,8 -18,-1 -39,5 -50,16 -11,9 -26,16 -34,15 -26,-3 -35,1 -46,26 -6,13 -23,27 -37,31 -24,6 -26,10 -20,44 5,32 3,40 -14,50 -18,9 -20,17 -15,52 6,37 4,44 -22,65 -25,19 -27,25 -16,40 35,50 37,64 14,103 l -21,38 39,26 c 40,26 54,66 30,81 -7,4 -9,-2 -5,-17 5,-20 -1,-28 -39,-52 -26,-16 -46,-32 -46,-35 0,-3 12,-24 25,-46 l 24,-39 -24,-32 c -32,-42 -31,-48 6,-77 31,-24 31,-25 18,-61 -13,-35 -12,-39 9,-55 17,-12 22,-25 20,-51 -3,-28 1,-36 23,-47 15,-7 34,-24 43,-38 9,-14 26,-25 37,-25 12,0 32,-9 46,-20 14,-11 21,-20 14,-20 -23,0 -140,52 -156,70 -23,25 -55,10 -55,-25 0,-15 -10,-31 -25,-41 -32,-21 -38,-16 -23,24 9,24 9,35 1,43 -9,9 -5,21 14,50 l 26,39 -26,58 c -54,120 -56,256 -6,354 l 20,38 -27,35 c -19,25 -25,42 -20,60 4,16 0,34 -10,50 -21,33 -12,42 21,21 15,-10 25,-26 25,-40 0,-15 15,-37 41,-61 22,-20 42,-35 44,-33 2,2 0,29 -4,60 -9,64 -5,68 59,68 21,0 42,5 45,10 11,18 23,11 18,-10 -4,-14 0,-20 11,-20 9,0 16,4 16,9 0,13 29,41 43,41 8,0 7,-4 -1,-12 z m 49,-795 c 13,-15 11,-16 -11,-10 -14,4 -31,7 -37,7 -7,0 -13,5 -13,10 0,16 46,11 61,-7 z m 79,-9 c 0,-2 -15,-4 -32,-3 -27,0 -29,2 -13,8 18,8 45,4 45,-5 z"
       id="path1"
       sodipodi:nodetypes="sccccccccccccsccccsssssssscscccccccsccccccscccscscsccscccccccscsccsscssscccsccccccccccsssccccccsscccccccccsccsccccscscccccccccccccccccsccccccccsssscscsscccccccccscscsccssssccsscsccs" />
    <path
       d="m 534,1145 c 0,-43 3,-54 14,-50 7,3 25,5 38,5 18,0 24,5 23,23 0,12 -3,16 -6,10 -2,-7 -13,-13 -24,-13 -14,0 -19,7 -19,30 0,17 5,30 10,30 6,0 10,5 10,10 0,6 -10,10 -22,10 -21,0 -23,-5 -24,-55 z"
       id="path2"
       sodipodi:nodetypes="ccsccsssssc" />
    <path
       d="m 630,1190 c 0,-5 5,-10 11,-10 8,0 9,-13 5,-40 l -6,-40 h 40 c 35,0 40,3 39,23 0,12 -3,16 -6,10 -6,-15 -53,-18 -53,-3 0,6 7,10 15,10 8,0 15,5 15,10 0,6 -8,10 -17,10 -13,0 -14,3 -5,12 10,10 17,10 32,0 17,-11 20,-10 20,8 0,17 -7,20 -45,20 -25,0 -45,-4 -45,-10 z"
       id="path3"
       sodipodi:nodetypes="ssccsccssssscsss" />
    <path
       d="m 806,1178 c -9,-12 -16,-30 -16,-40 0,-26 37,-47 68,-39 41,11 37,27 -7,23 -41,-4 -55,6 -45,32 8,22 51,31 69,16 12,-10 15,-9 15,9 0,31 -63,30 -84,-1 z"
       id="path4"
       sodipodi:nodetypes="cscccssc" />
    <path
       d="m 905.70312,1196.1562 c -3,-5 -3.7539,-16.8046 3.1836,-16.8789 7.7539,-0.1875 10.82031,0.5196 11.11328,-34.2773 0.10945,-12.9995 0.27344,-33.6211 -5.48828,-33.457 -10.47364,0.022 -10.95221,0.038 -10.80513,-8.5711 0.12746,-7.4612 -0.56564,-7.5628 22.29341,-7.5813 16.78347,-0.014 17.19959,-0.2148 17.24789,7.8906 0.0445,7.4674 -0.67826,7.6013 -5.77974,7.7266 -5.29059,0.1299 -3.57887,1.4403 -4.40565,4.582 -8,33 16.9375,29.4102 31.9375,-3.5898 5,-12 15.00028,-16.6723 22,-16.6094 18.4498,0.1658 18.6608,0.062 18.5287,8.5411 -0.1284,8.2401 -2.0163,7.957 -8.02146,8.1505 -6.35291,0.2047 -6.15896,0 -16.73895,6.1173 -11.93403,7.4916 -10.01048,12.863 5.98952,30.863 C 1013.7578,1178.0625 998,1200 951,1200 c -22,0 -41.29688,1.1562 -45.29688,-3.8438 z M 964,1174 c 25,-9 19,-24 -9,-24 -24,0 -32,10 -18,23 11.07531,7.2282 13.14733,5.5474 27,1 z"
       id="path5"
       sodipodi:nodetypes="ccscssssccsssccsccscc" />
    <path
       d="m 1033,1188 c -35,-46 -19,-88 33,-88 28,0 36,5 45,27 15,40 -3,73 -40,73 -16,0 -33,-6 -38,-12 z m 61,-23 c 23,-24 9,-47 -28,-43 -21,2 -32,9 -34,22 -7,33 35,47 62,21 z"
       id="path6"
       sodipodi:nodetypes="cscsccccc" />
    <path
       d="m 1147,1182 c -37,-41 -3,-97 51,-83 42,11 36,27 -8,23 -44,-4 -63,16 -40,43 15,18 56,20 63,3 3,-7 6,-3 6,10 1,18 -4,22 -27,22 -16,0 -36,-8 -45,-18 z"
       id="path7"
       sodipodi:nodetypes="ccscccsc" />
    <path
       d="m 1261,1186 c -7,-8 -11,-30 -9,-48 3,-31 5,-35.3437 43,-35.3437 34,0 41,6.3437 49,30.3437 7,19 7,34 0,45 -14,22 -67,27 -83,8 z m 69,-21 c 17,-20 -3,-45 -37,-45 -25,0 -36.3047,18.5938 -26.3047,43.5938 3,8 14.4766,15.1171 27.4766,15.1171 14,0 28.8281,-5.7109 35.8281,-13.7109 z"
       id="path8"
       sodipodi:nodetypes="ccscsccscsc" />
    <path
       d="m 1374,1144 0.2071,-46.0978 27.4727,0.7382 C 1438.2373,1101.1601 1470,1132 1470,1155 c 0,24 -30,45 -63,45 h -32 c -0.4853,-18.6635 -0.6989,-37.3329 -1,-56 z m 61,22 c 46.1926,-23.1438 -36.5778,-84.4417 -35,-16 0.4972,21.5648 1.531,31.8624 35,16 z"
       id="path9"
       sodipodi:nodetypes="cccsscccsc" />
    <path
       d="m 1485,1150 c 0,-40 3,-50 17,-50 13,0 15,7 11,40 -4,26 -2,40 6,40 6,0 11,5 11,10 0,6 -10,10 -22,10 -21,0 -23,-5 -23,-50 z"
       id="path10"
       sodipodi:nodetypes="sscssss" />
    <path
       d="m 1540,1190 c 0,-5 5,-10 11,-10 8,0 10,-14 6,-40 l -5,-40 h 39 c 34,0 39,3 38,23 0,12 -3,16 -6,10 -2,-7 -13,-13 -24,-13 -14,0 -19,7 -19,30 0,17 5,30 10,30 6,0 10,5 10,10 0,6 -13,10 -30,10 -16,0 -30,-4 -30,-10 z"
       id="path11"
       sodipodi:nodetypes="ssccsccssssss" />
    <path
       d="m 1640,1190 c 0,-5 5,-10 11,-10 8,0 10,-14 6,-40 l -5,-40 h 44 c 32,0 44,4 44,14 0,11 -9,13 -35,9 -23,-4 -35,-2 -35,6 0,6 9,11 20,11 11,0 20,5 20,10 0,6 -7,10 -15,10 -8,0 -15,5 -15,10 0,14 37,12 43,-2 3,-7 6,-3 6,10 1,20 -4,22 -44,22 -25,0 -45,-4 -45,-10 z"
       id="path12"
       sodipodi:nodetypes="ssccsscsssssscss" />
    <path
       d="m 1782.0773,834.85657 c -4.7403,-0.0416 -4.7409,-0.13829 -4.7942,-7.4719 -0.056,-7.73734 -1.425,-6.31517 15.2617,-6.3763 13.5768,-0.0497 13.7551,-0.39085 13.7985,6.27938 0.048,7.30742 0.3301,7.36096 -3.6674,7.37158 -6.3677,0.0169 -7.0113,-0.29026 -6.9463,3.81684 0.099,6.26657 4.3929,9.04511 18.5523,8.86758 38.3281,-1.40625 37.7158,52.17752 -2.2813,52.65625 -10.7202,0.12831 -15.9325,0.18441 -23.2273,0.13177 -11.2104,-0.0809 -11.1613,-0.0928 -11.2519,-6.71333 -0.089,-6.49478 -0.4621,-6.59211 7.1169,-6.73322 3.7746,-0.0703 3.0794,-0.33298 2.6226,-24.46186 -0.5595,-29.55085 1.197,-27.31081 -5.1836,-27.36679 z m 50.9696,36.43393 c 0.2343,-11.09375 -11.2472,-13.92061 -19.2472,-13.92061 -5.3751,0 -10.7628,0.92545 -12.8587,4.93404 -1.2254,2.34369 -2.7304,11.5044 -1.1067,14.59045 2.8507,5.41849 5.5251,5.568 13.5251,5.568 8,0 19.5607,-5.17322 19.6875,-11.17188 z"
       id="path13"
       inkscape:label="path13"
       style="display:inline;opacity:1;mix-blend-mode:normal"
       sodipodi:nodetypes="sssssscssssssssssss" />
    <path
       d="m 1857.364,849.98514 c -2.9234,-6.40768 -5.5062,-15.30426 -11.7245,-15.28712 -7.134,0.0197 -6.9828,0.15425 -7.0467,-7.57911 -0.064,-7.6994 -0.063,-7.11423 16.4072,-7.11891 12.153,-0.003 12.1918,-0.22773 12.3968,6.92551 0.2146,7.49154 0.1181,7.43202 -3.7733,7.43695 -7.2903,0.009 -5.5422,-0.44933 0.1069,10.01254 2.8112,5.20615 6.5976,4.43698 20.8204,4.33594 16.4564,-0.11691 17.4726,0.56641 22.8476,-6.91407 5.3672,-8.82446 5.2824,-7.74913 -0.1876,-7.79173 -4.5539,-0.0355 -4.7438,-0.13759 -4.5367,-7.04631 0.23,-7.67183 -0.09,-6.71062 14.1183,-6.91029 13.1534,-0.18484 13.3782,-0.22916 13.3214,6.29571 -0.063,7.21742 -0.2685,7.07781 -4.35,7.16359 -4.5155,0.0949 -3.4107,0.0906 -17.6603,29.53596 -1.0888,2.25 -13.0723,24.06912 -14.399,25.82365 -0.9862,1.30419 -1.9752,2.47507 -3.8268,4.75841 -7.1798,8.85389 -10.1117,-12.22283 -6.7182,-12.52272 4.3801,-0.38707 3.5911,-2.77565 7.4365,-11.28597 4.1597,-9.20586 5.7392,-11.60535 0.6344,-12.57865 -5.2521,-1.00137 -7.7427,-1.19926 -14.3425,0.18669 -3.3349,0.70033 -1.5042,6.97022 0.2826,11.9618 2.0057,5.60329 2.9164,11.64549 6.0039,11.6383 7.6982,-0.0179 14.733,3.76085 3.5161,16.41453 -1.536,1.73283 -3.9453,2.56682 -6.0421,2.55235 -9.1614,-0.006 -13.138,0.0282 -16.4815,-0.0138 -3.0185,-0.0379 -2.8698,-0.1396 -2.7836,-7.37712 0.079,-6.60609 -0.3849,-6.5096 7.4074,-6.56551 2.694,-0.0193 4.8471,0.086 4.2121,-1.19627 -2.138,-4.31726 -2.4883,-4.97241 -15.6388,-34.85434 z"
       id="path14"
       sodipodi:nodetypes="cssssssscssssssssssssssscsssscc" />
    <path
       d="m 1937.0105,893.40325 c -0.028,-7.60122 -0.077,-7.55492 7.8687,-7.71603 1.86,-0.0377 2.5417,0.3402 2.5593,-0.63286 0.059,-3.28064 4.2317,-51.63741 0.034,-51.5878 -7.747,0.0916 -6.9876,-0.0225 -6.8946,-7.16187 0.083,-6.34552 0.019,-6.89308 17.293,-6.91016 16.4649,-0.0163 16.3049,0.83942 16.4013,7.07237 -0.074,6.08813 0.1216,6.49718 -9.4446,6.6785 -7.3952,0.14018 -8.8038,2.09438 -5.2907,10.04529 4.0039,7.98438 28.9551,5.14525 38.9551,-6.85475 9,-13 8.5593,-16.8161 14.2148,-16.9375 7.1918,-0.15438 7.3829,-0.14882 7.31,6.85352 -0.071,6.79881 0.143,6.87114 -4.8816,6.95385 -3.5988,0.0592 -6.0535,0.36848 -10.8268,6.07935 -6.2694,7.47628 -10.0976,11.60942 -7.6248,14.3625 3.2705,3.64124 9.7344,3.58846 14.6053,7.58281 C 2025.7891,873.12109 2013,900 1980,900 c -11.8048,0 -26.81,-0.0368 -35.1255,-0.0883 -7.7427,-0.048 -7.8185,-0.10486 -7.864,-6.5084 z m 65.6848,-23.16888 c 0,-5 -10.3339,-12.06083 -18.3339,-12.06083 -8,0 -25.4546,-0.9454 -26.663,4.19047 -1.2176,5.17476 -1.7691,11.21304 -0.1427,17.88928 1.3808,5.66831 20.5824,4.23833 26.5085,3.90687 7.9875,-0.44675 18.6311,-7.92579 18.6311,-13.92579 z"
       id="path15"
       sodipodi:nodetypes="sssssscsccssscsssscsssssss" />
    <path
       d="m 2045.1657,857.0716 c -0.1661,-24.03984 -0.4592,-24.22359 -7.3295,-24.18711 -7.4572,0.0396 -7.2412,-0.26648 -6.9135,-7.86346 0.2633,-6.10694 -0.1743,-5.48025 23.3052,-5.64736 23.7188,-0.16881 24.7041,-0.67279 24.6482,6.03905 -0.053,6.43668 0.8672,7.05646 -5.4268,7.15639 -9.4367,0.14984 -8.7785,-0.30758 -9.7322,23.29411 -0.3839,28.45316 -0.1303,28.76693 6.3083,28.77154 8.6649,-0.0351 8.7947,0.26574 9.0167,8.17635 0.1952,6.95617 0.3703,7.05179 -22.0421,7.18889 -26.3928,0.16144 -26.3207,-0.30729 -26.3075,-6.3382 0.019,-8.93577 -0.01,-8.90684 6.5445,-9.024 8.4046,-0.15023 8.1192,-0.008 7.9287,-27.5662 z"
       id="path16"
       style="opacity:1"
       sodipodi:nodetypes="ssssssccsssss" />
    <path
       style="fill:#1a1a1a;stroke:#020401;stroke-width:38.0245"
       d="M -7.5585647,2221.2697 H 2240.1269 M -7.6486245,2183.9831 H 2240.0368 M -0.84495727,55.327768 H 2246.8404 M -0.93505727,18.041168 H 2246.7503"
       id="path110"
       sodipodi:nodetypes="cccccccc" />
    <path
       style="fill:#225500;stroke:#020401;stroke-width:38.0381"
       d="M 2222.6548,2205.7856 2221.8368,23.435383"
       id="path17"
       sodipodi:nodetypes="cc" />
    <path
       style="fill:#225500;stroke:#020401;stroke-width:38.0381"
       d="M 2190.2162,2208.5631 2189.3982,26.212952"
       id="path17-0"
       sodipodi:nodetypes="cc" />
    <path
       style="fill:#225500;stroke:#020401;stroke-width:15.1709"
       d="m 2119.3211,2165.035 -0.026,-803.4638 m -59.6466,803.3334 -0.026,-721.1982 m -59.6271,721.41 -0.026,-653.4982"
       id="path18"
       sodipodi:nodetypes="cccccc" />
    <path
       style="fill:#225500;stroke:#020401;stroke-width:15.1686"
       d="m 2171.1688,2113.2743 -1375.55738,-0.01 m 1375.50208,-59.6468 -1170.8802,-1.0871 m 1171.167,-58.5481 -883.1847,-0.018"
       id="path19"
       sodipodi:nodetypes="cccccc" />
    <path
       style="fill:#225500;stroke:#020401;stroke-width:15.1709"
       d="m 51.704078,74.294917 0.2707,803.463763 M 111.37671,74.407147 111.62236,795.60531 m 59.40738,-721.428123 0.22504,653.498163"
       id="path20"
       sodipodi:nodetypes="cccccc" />
    <path
       style="fill:#225500;stroke:#020401;stroke-width:15.1686"
       d="M -0.12785874,126.07141 1375.4295,125.66248 M -0.05438974,185.72819 1170.8261,186.4587 M -0.32302774,245.36348 882.86164,245.11251"
       id="path21"
       sodipodi:nodetypes="cccccc" />
  </g>
</svg>
